<svg width="50" height="45" viewBox="0 0 64 55" fill="none" xmlns="http://www.w3.org/2000/svg">
<path d="M16 4.58333L8 13.75V45.8333C8 47.0489 8.5619 48.2147 9.5621 49.0742C10.5623 49.9338 11.9188 50.4167 13.3333 50.4167H50.6667C52.0812 50.4167 53.4377 49.9338 54.4379 49.0742C55.4381 48.2147 56 47.0489 56 45.8333V13.75L48 4.58333H16Z" stroke="black" stroke-width="2" stroke-linecap="round" stroke-linejoin="round"/>
<path d="M8 13.75H56" stroke="black" stroke-width="2" stroke-linecap="round" stroke-linejoin="round"/>
<path d="M42.6667 22.9167C42.6667 25.3478 41.5429 27.6794 39.5425 29.3985C37.5421 31.1176 34.829 32.0833 32 32.0833C29.171 32.0833 26.4579 31.1176 24.4575 29.3985C22.4571 27.6794 21.3333 25.3478 21.3333 22.9167" stroke="black" stroke-width="2" stroke-linecap="round" stroke-linejoin="round"/>
</svg>
